<svg xmlns="http://www.w3.org/2000/svg" viewBox="0 0 640 480"><path fill="#012169" d="M0 0h640v480H0z"/><path fill="#FFF" d="M640 0v59L320 240 0 59V0h640zm0 480v-59L320 240 0 421v59h640zM280 0v480h80V0h-80zM0 200v80h640v-80H0z"/><path fill="#C8102E" d="M0 213.3v53.4h640v-53.4zM293.3 0v480h53.4V0zM0 32.5L320 240 0 447.5V32.5zM640 32.5L320 240 640 447.5V32.5z"/><path fill="#FFF" d="M213.3 0L0 160v26.7L186.7 0h26.6zm213.4 0L640 160v26.7L453.3 0h-26.6zM0 320l213.3 160h-26.6L0 346.7V320zm640 320L426.7 320h26.6L640 346.7V320z"/><path fill="#C8102E" d="M176 0L0 132v53.3L122.7 0H176zm288 0L640 132v53.3L517.3 0H464zM0 348l176 132h-53.3L0 394.7V348zm640 348L464 320h53.3L640 394.7V348z"/></svg>
    