<svg xmlns="http://www.w3.org/2000/svg" viewBox="0 0 900 600"><path fill="#f93" d="M0 0h900v200H0z"/><path fill="#fff" d="M0 200h900v200H0z"/><path fill="#128807" d="M0 400h900v200H0z"/><g transform="translate(450 300)"><circle r="80" fill="#000080"/><circle r="70" fill="#fff"/><circle r="20" fill="#000080"/><path fill="#000080" id="a" d="M-69.282 10.163l-2.022-12.33 13.9-2.25-2.02-12.33 13.9-2.25-2.02-12.33 13.9-2.25-2.02-12.33 13.9-2.25-2.02-12.33 13.9-2.25-2.02-12.33 13.9-2.25-2.02-12.33 13.9-2.25-2.02-12.33 13.9-2.25-2.02-12.33 13.9-2.25-2.02-12.33 13.9-2.25-2.02-12.33 13.9-2.25-2.02-12.33 13.9-2.25-2.02-12.33 13.9-2.25-2.02-12.33 13.9-2.25-2.02-12.33 13.9-2.25-2.02-12.33 13.9-2.25-2.02-12.33 13.9-2.25-2.02-12.33 13.9-2.25-2.02-12.33 13.9-2.25-2.02-12.33 13.9-2.25-2.02-12.33 13.9-2.25-2.02-12.33 13.9-2.25-2.02-12.33 13.9-2.25-2.02-12.33L-69.282 10.163z"/><use href="#a" transform="rotate(15)"/><use href="#a" transform="rotate(30)"/><use href="#a" transform="rotate(45)"/><use href="#a" transform="rotate(60)"/><use href="#a" transform="rotate(75)"/><use href="#a" transform="rotate(90)"/><use href="#a" transform="rotate(105)"/><use href="#a" transform="rotate(120)"/><use href="#a" transform="rotate(135)"/><use href="#a" transform="rotate(150)"/><use href="#a" transform="rotate(165)"/><use href="#a" transform="rotate(180)"/><use href="#a" transform="rotate(195)"/><use href="#a" transform="rotate(210)"/><use href="#a" transform="rotate(225)"/><use href="#a" transform="rotate(240)"/><use href="#a" transform="rotate(255)"/><use href="#a" transform="rotate(270)"/><use href="#a" transform="rotate(285)"/><use href="#a" transform="rotate(300)"/><use href="#a" transform="rotate(315)"/><use href="#a" transform="rotate(330)"/><use href="#a" transform="rotate(345)"/></g></svg>